# xmcd
#
# Track frame offsets:
#	150
#	11054
#	27367
#	44326
#	59779
#	75924
#	92527
#	111055
#	123959
#	137825
#	151978
#	167769
#
# Disc length: 2440 seconds
#
# Revision: 0
# Processed by: cddbd v1.5.2PL0 Copyright (c) Steve Scherf et al.
# Submitted via: EasyCDDAExtractor 12.0.1.1
#
DISCID=9309860c
DTITLE=Kaliopi - Želim ti reći
DYEAR=2008
DGENRE=Pop
TTITLE0=Želim ti reći
TTITLE1=Crne ruže
TTITLE2=Zovem se
TTITLE3=Grijeh
TTITLE4=Probudi me
TTITLE5=Bar da si tu
TTITLE6=Ljubi
TTITLE7=Poklanjam ti
TTITLE8=Od sebe ne odustajem
TTITLE9=Ne
TTITLE10=Miriše nam ljubav
TTITLE11=Poslednja
EXTD=
EXTT0=
EXTT1=
EXTT2=
EXTT3=
EXTT4=
EXTT5=
EXTT6=
EXTT7=
EXTT8=
EXTT9=
EXTT10=
EXTT11=
PLAYORDER=
